<svg id="Calque_2" data-name="Calque 2" xmlns="http://www.w3.org/2000/svg" xmlns:xlink="http://www.w3.org/1999/xlink" viewBox="0 0 2000 758.82"><defs><style>.cls-1{fill:#009fe3;}.cls-2{fill:url(#Dégradé_sans_nom_32);}.cls-3{fill:#717272;}.cls-4{fill:url(#Dégradé_sans_nom_31);}.cls-5{font-size:304.72px;}.cls-5,.cls-6{fill:#1d71b8;}.cls-5,.cls-6,.cls-8{font-family:Montserrat-Bold, Montserrat;font-weight:700;}.cls-6{font-size:199.11px;}.cls-7{letter-spacing:0.01em;}.cls-8{font-size:98.16px;fill:#f39200;}.cls-9{letter-spacing:-0.01em;}</style><linearGradient id="Dégradé_sans_nom_32" x1="654.45" y1="63.8" x2="742.36" y2="562.31" gradientUnits="userSpaceOnUse"><stop offset="0" stop-color="#3ad235"/><stop offset="0.02" stop-color="#38cd3c"/><stop offset="0.16" stop-color="#30b162"/><stop offset="0.31" stop-color="#299a81"/><stop offset="0.46" stop-color="#248899"/><stop offset="0.62" stop-color="#207bab"/><stop offset="0.79" stop-color="#1e73b5"/><stop offset="1" stop-color="#1d71b8"/></linearGradient><linearGradient id="Dégradé_sans_nom_31" x1="583.62" y1="127.18" x2="912.9" y2="456.45" gradientUnits="userSpaceOnUse"><stop offset="0" stop-color="#3ad235"/><stop offset="1" stop-color="#1d71b8"/></linearGradient></defs><path class="cls-1" d="M698.41,60a254.13,254.13,0,0,0-53.21,5.6h0C531,90,445.35,191.54,445.35,313.06c0,139.76,113.3,253.06,253.06,253.06a255.35,255.35,0,0,0,35-2.4c123.21-17,218.09-122.77,218.09-250.66C951.47,173.29,838.17,60,698.41,60Zm25.3,449.07a220,220,0,0,1-29.66,2c-121.36,0-219.74-98.38-219.74-219.73,0-105.26,74-193.24,172.84-214.72a220.24,220.24,0,0,1,46.9-5c121.35,0,219.73,98.38,219.73,219.74C913.78,402.62,831,494.59,723.71,509.07Z"/><path class="cls-1" d="M698.41,60a254.13,254.13,0,0,0-53.21,5.6h0C531,90,445.35,191.54,445.35,313.06c0,139.76,113.3,253.06,253.06,253.06a255.35,255.35,0,0,0,35-2.4c123.21-17,218.09-122.77,218.09-250.66C951.47,173.29,838.17,60,698.41,60Zm25.3,449.07a220,220,0,0,1-29.66,2c-121.36,0-219.74-98.38-219.74-219.73,0-105.26,74-193.24,172.84-214.72a220.24,220.24,0,0,1,46.9-5c121.35,0,219.73,98.38,219.73,219.74C913.78,402.62,831,494.59,723.71,509.07Z"/><path class="cls-2" d="M698.41,60a254.13,254.13,0,0,0-53.21,5.6h0C531,90,445.35,191.54,445.35,313.06c0,139.76,113.3,253.06,253.06,253.06a255.35,255.35,0,0,0,35-2.4c123.21-17,218.09-122.77,218.09-250.66C951.47,173.29,838.17,60,698.41,60Zm25.3,449.07a220,220,0,0,1-29.66,2c-121.36,0-219.74-98.38-219.74-219.73,0-105.26,74-193.24,172.84-214.72a220.24,220.24,0,0,1,46.9-5c121.35,0,219.73,98.38,219.73,219.74C913.78,402.62,831,494.59,723.71,509.07Z"/><path class="cls-3" d="M762.27,726.89A361.51,361.51,0,0,1,709,730.82c-198.49,0-359.39-160.91-359.39-359.39C349.6,197.6,476,69.7,640,36.36l1.48,8.38c-129.1,26-226.32,140.1-226.32,276.87,0,156,126.46,282.45,282.45,282.45A283.9,283.9,0,0,0,740,600.9Z"/><path class="cls-4" d="M951.47,313.06c0,127.89-94.88,233.63-218.09,250.66l-9.67-54.65C831,494.59,913.78,402.62,913.78,291.33,913.78,170,815.4,71.59,694.05,71.59a220.24,220.24,0,0,0-46.9,5l-1.95-11h0A254.13,254.13,0,0,1,698.41,60C838.17,60,951.47,173.29,951.47,313.06Z"/><text class="cls-5" transform="translate(607.02 400.18)">L</text><text class="cls-6" transform="translate(1020.42 404.63)"><tspan class="cls-7">La</tspan><tspan x="245.5" y="0">dsdel</tspan></text><text class="cls-8" transform="translate(1036.94 505.68)">GES<tspan class="cls-9" x="204.17" y="0">C</tspan><tspan x="274.65" y="0">OM</tspan></text></svg>